<svg id="Wave-01" xmlns="http://www.w3.org/2000/svg" viewBox="0 0 500 123.46"><defs><style>.cls-1{fill:#efeeef;}</style></defs><path class="cls-1" d="M0,110c15.62,0,15.62,13.49,31.25,13.49S46.87,110,62.5,110s15.62,13.49,31.24,13.49S109.37,110,125,110s15.62,13.49,31.24,13.49S171.86,110,187.48,110s15.62,13.49,31.25,13.49S234.35,110,250,110s15.63,13.49,31.25,13.49S296.85,110,312.47,110s15.63,13.49,31.25,13.49S359.35,110,375,110s15.62,13.49,31.25,13.49S421.86,110,437.48,110s15.63,13.49,31.26,13.49S484.37,110,500,110V0H0V110Z"/></svg>