<svg id="レイヤー_1" data-name="レイヤー 1" xmlns="http://www.w3.org/2000/svg" width="750" height="494" viewBox="0 0 750 494">
  <defs>
    <style>
      .cls-1 {
        fill: #eeedee;
      }
    </style>
  </defs>
  <path class="cls-1" d="M0,473.76c23.44,0,23.44,20.24,46.87,20.24s23.44-20.24,46.87-20.24S117.18,494,140.62,494s23.43-20.24,46.87-20.24S210.92,494,234.35,494s23.43-20.24,46.87-20.24S304.66,494,328.09,494s23.44-20.24,46.87-20.24S398.4,494,421.83,494s23.44-20.24,46.88-20.24S492.15,494,515.58,494s23.44-20.24,46.88-20.24S585.9,494,609.34,494s23.44-20.24,46.88-20.24S679.67,494,703.11,494s23.45-20.24,46.89-20.24V0H0V473.76Z"/>
</svg>
