<svg id="Wave-01" xmlns="http://www.w3.org/2000/svg" viewBox="0 0 499.35 199.42"><defs><style>.cls-1{fill:#efeeef;}</style></defs><path class="cls-1" d="M.33,187.7c15.58,0,15.58,11.58,31.16,11.58S47.08,187.7,62.66,187.7s15.58,11.58,31.17,11.58S109.41,187.7,125,187.7s15.58,11.58,31.16,11.58,15.58-11.58,31.17-11.58,15.58,11.58,31.16,11.58,15.59-11.58,31.17-11.58,15.58,11.58,31.16,11.58S296.4,187.7,312,187.7s15.59,11.58,31.17,11.58,15.59-11.58,31.17-11.58,15.59,11.58,31.17,11.58,15.59-11.58,31.18-11.58,15.58,11.58,31.17,11.58S483.43,187.7,499,187.7V0H.33V187.7Z"/></svg>