<svg id="レイヤー_1" data-name="レイヤー 1" xmlns="http://www.w3.org/2000/svg" width="750" height="1334" viewBox="0 0 750 1334">
  <defs>
    <style>
      .cls-1 {
        fill: #eeedee;
      }
    </style>
  </defs>
  <path class="cls-1" d="M0,1313.76c23.44,0,23.44,20.24,46.87,20.24s23.44-20.24,46.87-20.24S117.18,1334,140.62,1334s23.43-20.24,46.87-20.24S210.92,1334,234.35,1334s23.43-20.24,46.87-20.24S304.66,1334,328.09,1334s23.44-20.24,46.87-20.24S398.4,1334,421.83,1334s23.44-20.24,46.88-20.24S492.15,1334,515.58,1334s23.44-20.24,46.88-20.24S585.9,1334,609.34,1334s23.44-20.24,46.88-20.24S679.67,1334,703.11,1334s23.45-20.24,46.89-20.24V0H0V1313.76Z"/>
</svg>
