<svg id="レイヤー_1" data-name="レイヤー 1" xmlns="http://www.w3.org/2000/svg" width="750" height="1129" viewBox="0 0 750 1129">
  <defs>
    <style>
      .cls-1 {
        fill: #fbe8e5;
      }
    </style>
  </defs>
  <path class="cls-1" d="M0,1108.76c23.44,0,23.44,20.24,46.87,20.24s23.44-20.24,46.87-20.24S117.18,1129,140.62,1129s23.43-20.24,46.87-20.24S210.92,1129,234.35,1129s23.43-20.24,46.87-20.24S304.66,1129,328.09,1129s23.44-20.24,46.87-20.24S398.4,1129,421.83,1129s23.44-20.24,46.88-20.24S492.15,1129,515.58,1129s23.44-20.24,46.88-20.24S585.9,1129,609.34,1129s23.44-20.24,46.88-20.24S679.67,1129,703.11,1129s23.45-20.24,46.89-20.24V0H0V1108.76Z"/>
</svg>
