<svg id="レイヤー_1" data-name="レイヤー 1" xmlns="http://www.w3.org/2000/svg" width="85.95" height="131.01" viewBox="0 0 85.95 131.01">
  <defs>
    <style>
      .cls-1 {
        fill: #e61d37;
      }

      .cls-2 {
        fill: #fff;
      }
    </style>
  </defs>
  <g>
    <path class="cls-1" d="M78.64,44.25c5.73,6.18,13.57,38.4-1,67.21-15.28,30.13-64.44,24-72.68-8.52C-7.8,66.45,4.11,0,41.15,0,53.15,0,72.91,38.06,78.64,44.25Z"/>
    <path class="cls-2" d="M58.72,79.67a2.44,2.44,0,0,1-1.87-.87L41.93,61,26.57,78.82a2.44,2.44,0,1,1-3.7-3.18l17.24-20A2.43,2.43,0,0,1,42,54.79h0a2.39,2.39,0,0,1,1.85.87l16.77,20a2.45,2.45,0,0,1-1.87,4Z"/>
  </g>
</svg>
