<svg id="レイヤー_1" data-name="レイヤー 1" xmlns="http://www.w3.org/2000/svg" width="750" height="2668" viewBox="0 0 750 2668">
  <defs>
    <style>
      .cls-1 {
        fill: #f5efe1;
      }
    </style>
  </defs>
  <path class="cls-1" d="M0,2647.76c23.44,0,23.44,20.24,46.87,20.24s23.44-20.24,46.87-20.24S117.18,2668,140.62,2668s23.43-20.24,46.87-20.24S210.92,2668,234.35,2668s23.43-20.24,46.87-20.24S304.66,2668,328.09,2668s23.44-20.24,46.87-20.24S398.4,2668,421.83,2668s23.44-20.24,46.88-20.24S492.15,2668,515.58,2668s23.44-20.24,46.88-20.24S585.9,2668,609.34,2668s23.44-20.24,46.88-20.24S679.67,2668,703.11,2668s23.45-20.24,46.89-20.24V0H0V2647.76Z"/>
</svg>
